<svg width="275" height="26" viewBox="0 0 275 26" fill="none" xmlns="http://www.w3.org/2000/svg">
<path d="M6.22727 1.72727L11.8523 19.4091H12.0682L17.7045 1.72727H23.1591L15.1364 25H8.79545L0.761364 1.72727H6.22727ZM25.8693 25V7.54545H30.7102V25H25.8693ZM28.3011 5.29545C27.5814 5.29545 26.964 5.05682 26.4489 4.57954C25.9413 4.0947 25.6875 3.51515 25.6875 2.84091C25.6875 2.17424 25.9413 1.60227 26.4489 1.125C26.964 0.640151 27.5814 0.397726 28.3011 0.397726C29.0208 0.397726 29.6345 0.640151 30.142 1.125C30.6572 1.60227 30.9148 2.17424 30.9148 2.84091C30.9148 3.51515 30.6572 4.0947 30.142 4.57954C29.6345 5.05682 29.0208 5.29545 28.3011 5.29545ZM39.429 1.72727V25H34.5881V1.72727H39.429ZM51.2614 25.3409C49.4659 25.3409 47.9205 24.9773 46.625 24.25C45.3371 23.5152 44.3447 22.4773 43.6477 21.1364C42.9508 19.7879 42.6023 18.1932 42.6023 16.3523C42.6023 14.5568 42.9508 12.9811 43.6477 11.625C44.3447 10.2689 45.3258 9.21212 46.5909 8.45454C47.8636 7.69697 49.3561 7.31818 51.0682 7.31818C52.2197 7.31818 53.2917 7.50379 54.2841 7.875C55.2841 8.23864 56.1553 8.78788 56.8977 9.52273C57.6477 10.2576 58.2311 11.1818 58.6477 12.2955C59.0644 13.4015 59.2727 14.697 59.2727 16.1818V17.5114H44.5341V14.5114H54.7159C54.7159 13.8144 54.5644 13.197 54.2614 12.6591C53.9583 12.1212 53.5379 11.7008 53 11.3977C52.4697 11.0871 51.8523 10.9318 51.1477 10.9318C50.4129 10.9318 49.7614 11.1023 49.1932 11.4432C48.6326 11.7765 48.1932 12.2273 47.875 12.7955C47.5568 13.3561 47.3939 13.9811 47.3864 14.6705V17.5227C47.3864 18.3864 47.5455 19.1326 47.8636 19.7614C48.1894 20.3902 48.6477 20.875 49.2386 21.2159C49.8295 21.5568 50.5303 21.7273 51.3409 21.7273C51.8788 21.7273 52.3712 21.6515 52.8182 21.5C53.2652 21.3485 53.6477 21.1212 53.9659 20.8182C54.2841 20.5152 54.5265 20.1439 54.6932 19.7045L59.1705 20C58.9432 21.0758 58.4773 22.0152 57.7727 22.8182C57.0758 23.6136 56.1742 24.2348 55.0682 24.6818C53.9697 25.1212 52.7008 25.3409 51.2614 25.3409ZM67.2727 14.9091V25H62.4318V7.54545H67.0455V10.625H67.25C67.6364 9.60985 68.2841 8.80682 69.1932 8.21591C70.1023 7.61742 71.2045 7.31818 72.5 7.31818C73.7121 7.31818 74.7689 7.58333 75.6705 8.11364C76.572 8.64394 77.2727 9.40151 77.7727 10.3864C78.2727 11.3636 78.5227 12.5303 78.5227 13.8864V25H73.6818V14.75C73.6894 13.6818 73.4167 12.8485 72.8636 12.25C72.3106 11.6439 71.5492 11.3409 70.5795 11.3409C69.928 11.3409 69.3523 11.4811 68.8523 11.7614C68.3598 12.0417 67.9735 12.4508 67.6932 12.9886C67.4205 13.5189 67.2803 14.1591 67.2727 14.9091ZM87.3153 25.3295C86.2017 25.3295 85.2093 25.1364 84.3381 24.75C83.4669 24.3561 82.7775 23.7765 82.2699 23.0114C81.7699 22.2386 81.5199 21.2765 81.5199 20.125C81.5199 19.1553 81.6979 18.3409 82.054 17.6818C82.41 17.0227 82.8949 16.4924 83.5085 16.0909C84.1222 15.6894 84.8191 15.3864 85.5994 15.1818C86.3873 14.9773 87.2131 14.8333 88.0767 14.75C89.0919 14.6439 89.91 14.5455 90.5312 14.4545C91.1525 14.3561 91.6032 14.2121 91.8835 14.0227C92.1638 13.8333 92.304 13.553 92.304 13.1818V13.1136C92.304 12.3939 92.0767 11.8371 91.6222 11.4432C91.1752 11.0492 90.5388 10.8523 89.7131 10.8523C88.8419 10.8523 88.1487 11.0455 87.6335 11.4318C87.1184 11.8106 86.7775 12.2879 86.6108 12.8636L82.1335 12.5C82.3608 11.4394 82.8078 10.5227 83.4744 9.75C84.1411 8.9697 85.0009 8.37121 86.054 7.95454C87.1146 7.5303 88.3419 7.31818 89.7358 7.31818C90.7055 7.31818 91.6335 7.43182 92.5199 7.65909C93.4138 7.88636 94.2055 8.23864 94.8949 8.71591C95.5919 9.19318 96.1411 9.80682 96.5426 10.5568C96.9441 11.2992 97.1449 12.1894 97.1449 13.2273V25H92.554V22.5795H92.4176C92.1373 23.125 91.7623 23.6061 91.2926 24.0227C90.8229 24.4318 90.2585 24.7538 89.5994 24.9886C88.9403 25.2159 88.179 25.3295 87.3153 25.3295ZM88.7017 21.9886C89.4138 21.9886 90.0426 21.8485 90.5881 21.5682C91.1335 21.2803 91.5616 20.8939 91.8722 20.4091C92.1828 19.9242 92.3381 19.375 92.3381 18.7614V16.9091C92.1866 17.0076 91.9782 17.0985 91.7131 17.1818C91.4555 17.2576 91.1638 17.3295 90.8381 17.3977C90.5123 17.4583 90.1866 17.5152 89.8608 17.5682C89.535 17.6136 89.2396 17.6553 88.9744 17.6932C88.4063 17.7765 87.91 17.9091 87.4858 18.0909C87.0616 18.2727 86.732 18.5189 86.4972 18.8295C86.2623 19.1326 86.1449 19.5114 86.1449 19.9659C86.1449 20.625 86.3835 21.1288 86.8608 21.4773C87.3456 21.8182 87.9593 21.9886 88.7017 21.9886ZM127.864 1.72727V25H123.614L113.489 10.3523H113.318V25H108.398V1.72727H112.716L122.761 16.3636H122.966V1.72727H127.864ZM131.838 25V7.54545H136.679V25H131.838ZM134.27 5.29545C133.55 5.29545 132.933 5.05682 132.418 4.57954C131.91 4.0947 131.656 3.51515 131.656 2.84091C131.656 2.17424 131.91 1.60227 132.418 1.125C132.933 0.640151 133.55 0.397726 134.27 0.397726C134.99 0.397726 135.603 0.640151 136.111 1.125C136.626 1.60227 136.884 2.17424 136.884 2.84091C136.884 3.51515 136.626 4.0947 136.111 4.57954C135.603 5.05682 134.99 5.29545 134.27 5.29545ZM148.443 25.3409C146.655 25.3409 145.117 24.9621 143.83 24.2045C142.549 23.4394 141.564 22.3788 140.875 21.0227C140.193 19.6667 139.852 18.1061 139.852 16.3409C139.852 14.553 140.197 12.9848 140.886 11.6364C141.583 10.2803 142.572 9.22348 143.852 8.46591C145.133 7.70076 146.655 7.31818 148.42 7.31818C149.943 7.31818 151.277 7.5947 152.42 8.14773C153.564 8.70076 154.47 9.47727 155.136 10.4773C155.803 11.4773 156.17 12.6515 156.239 14H151.67C151.542 13.1288 151.201 12.428 150.648 11.8977C150.102 11.3598 149.386 11.0909 148.5 11.0909C147.75 11.0909 147.095 11.2955 146.534 11.7045C145.981 12.1061 145.549 12.6932 145.239 13.4659C144.928 14.2386 144.773 15.1742 144.773 16.2727C144.773 17.3864 144.924 18.3333 145.227 19.1136C145.538 19.8939 145.973 20.4886 146.534 20.8977C147.095 21.3068 147.75 21.5114 148.5 21.5114C149.053 21.5114 149.549 21.3977 149.989 21.1705C150.436 20.9432 150.803 20.6136 151.091 20.1818C151.386 19.7424 151.58 19.2159 151.67 18.6023H156.239C156.163 19.9356 155.799 21.1098 155.148 22.125C154.504 23.1326 153.614 23.9205 152.477 24.4886C151.341 25.0568 149.996 25.3409 148.443 25.3409ZM163.724 19.9773L163.736 14.1705H164.44L170.031 7.54545H175.588L168.077 16.3182H166.929L163.724 19.9773ZM159.338 25V1.72727H164.179V25H159.338ZM170.247 25L165.111 17.3977L168.338 13.9773L175.918 25H170.247ZM177.963 25V7.54545H182.804V25H177.963ZM180.395 5.29545C179.675 5.29545 179.058 5.05682 178.543 4.57954C178.035 4.0947 177.781 3.51515 177.781 2.84091C177.781 2.17424 178.035 1.60227 178.543 1.125C179.058 0.640151 179.675 0.397726 180.395 0.397726C181.115 0.397726 181.728 0.640151 182.236 1.125C182.751 1.60227 183.009 2.17424 183.009 2.84091C183.009 3.51515 182.751 4.0947 182.236 4.57954C181.728 5.05682 181.115 5.29545 180.395 5.29545ZM195.966 7.54545V11.1818H185.455V7.54545H195.966ZM187.841 3.36364H192.682V19.6364C192.682 20.0833 192.75 20.4318 192.886 20.6818C193.023 20.9242 193.212 21.0947 193.455 21.1932C193.705 21.2917 193.992 21.3409 194.318 21.3409C194.545 21.3409 194.773 21.322 195 21.2841C195.227 21.2386 195.402 21.2045 195.523 21.1818L196.284 24.7841C196.042 24.8598 195.701 24.947 195.261 25.0455C194.822 25.1515 194.288 25.2159 193.659 25.2386C192.492 25.2841 191.47 25.1288 190.591 24.7727C189.72 24.4167 189.042 23.8636 188.557 23.1136C188.072 22.3636 187.833 21.4167 187.841 20.2727V3.36364ZM206.818 25.3409C205.03 25.3409 203.492 24.9621 202.205 24.2045C200.924 23.4394 199.939 22.3788 199.25 21.0227C198.568 19.6667 198.227 18.1061 198.227 16.3409C198.227 14.553 198.572 12.9848 199.261 11.6364C199.958 10.2803 200.947 9.22348 202.227 8.46591C203.508 7.70076 205.03 7.31818 206.795 7.31818C208.318 7.31818 209.652 7.5947 210.795 8.14773C211.939 8.70076 212.845 9.47727 213.511 10.4773C214.178 11.4773 214.545 12.6515 214.614 14H210.045C209.917 13.1288 209.576 12.428 209.023 11.8977C208.477 11.3598 207.761 11.0909 206.875 11.0909C206.125 11.0909 205.47 11.2955 204.909 11.7045C204.356 12.1061 203.924 12.6932 203.614 13.4659C203.303 14.2386 203.148 15.1742 203.148 16.2727C203.148 17.3864 203.299 18.3333 203.602 19.1136C203.913 19.8939 204.348 20.4886 204.909 20.8977C205.47 21.3068 206.125 21.5114 206.875 21.5114C207.428 21.5114 207.924 21.3977 208.364 21.1705C208.811 20.9432 209.178 20.6136 209.466 20.1818C209.761 19.7424 209.955 19.2159 210.045 18.6023H214.614C214.538 19.9356 214.174 21.1098 213.523 22.125C212.879 23.1326 211.989 23.9205 210.852 24.4886C209.716 25.0568 208.371 25.3409 206.818 25.3409ZM222.554 14.9091V25H217.713V1.72727H222.418V10.625H222.622C223.016 9.5947 223.652 8.78788 224.531 8.20454C225.41 7.61364 226.512 7.31818 227.838 7.31818C229.05 7.31818 230.107 7.58333 231.009 8.11364C231.918 8.63636 232.622 9.39015 233.122 10.375C233.63 11.3523 233.88 12.5227 233.872 13.8864V25H229.031V14.75C229.039 13.6742 228.766 12.8371 228.213 12.2386C227.668 11.6402 226.902 11.3409 225.918 11.3409C225.259 11.3409 224.675 11.4811 224.168 11.7614C223.668 12.0417 223.274 12.4508 222.986 12.9886C222.705 13.5189 222.562 14.1591 222.554 14.9091ZM248.875 17.5682V7.54545H253.716V25H249.068V21.8295H248.886C248.492 22.8523 247.837 23.6742 246.92 24.2955C246.011 24.9167 244.902 25.2273 243.591 25.2273C242.424 25.2273 241.398 24.9621 240.511 24.4318C239.625 23.9015 238.932 23.1477 238.432 22.1705C237.939 21.1932 237.689 20.0227 237.682 18.6591V7.54545H242.523V17.7955C242.53 18.8258 242.807 19.6402 243.352 20.2386C243.898 20.8371 244.629 21.1364 245.545 21.1364C246.129 21.1364 246.674 21.0038 247.182 20.7386C247.689 20.4659 248.098 20.0644 248.409 19.5341C248.727 19.0038 248.883 18.3485 248.875 17.5682ZM261.974 19.9773L261.986 14.1705H262.69L268.281 7.54545H273.838L266.327 16.3182H265.179L261.974 19.9773ZM257.588 25V1.72727H262.429V25H257.588ZM268.497 25L263.361 17.3977L266.588 13.9773L274.168 25H268.497Z" fill="black"/>
</svg>
