<svg width="192" height="20" viewBox="0 0 192 20" fill="none" xmlns="http://www.w3.org/2000/svg">
<path d="M4.67045 1.54545L8.8892 14.8068H9.05114L13.2784 1.54545H17.3693L11.3523 19H6.59659L0.571022 1.54545H4.67045Z" fill="white"/>
<path d="M19.402 19V5.90909H23.0327V19H19.402ZM21.2259 4.22159C20.6861 4.22159 20.223 4.04261 19.8366 3.68466C19.456 3.32102 19.2656 2.88636 19.2656 2.38068C19.2656 1.88068 19.456 1.4517 19.8366 1.09375C20.223 0.730113 20.6861 0.548294 21.2259 0.548294C21.7656 0.548294 22.2259 0.730113 22.6065 1.09375C22.9929 1.4517 23.1861 1.88068 23.1861 2.38068C23.1861 2.88636 22.9929 3.32102 22.6065 3.68466C22.2259 4.04261 21.7656 4.22159 21.2259 4.22159Z" fill="white"/>
<path d="M29.5717 1.54545V19H25.9411V1.54545H29.5717Z" fill="white"/>
<path d="M38.446 19.2557C37.0994 19.2557 35.9403 18.983 34.9688 18.4375C34.0028 17.8864 33.2585 17.108 32.7358 16.1023C32.2131 15.0909 31.9517 13.8949 31.9517 12.5142C31.9517 11.1676 32.2131 9.9858 32.7358 8.96875C33.2585 7.9517 33.9943 7.15909 34.9432 6.59091C35.8977 6.02273 37.017 5.73864 38.3011 5.73864C39.1648 5.73864 39.9688 5.87784 40.7131 6.15625C41.4631 6.42898 42.1165 6.84091 42.6733 7.39204C43.2358 7.94318 43.6733 8.63636 43.9858 9.47159C44.2983 10.3011 44.4545 11.2727 44.4545 12.3864V13.3835H33.4006V11.1335H41.0369C41.0369 10.6108 40.9233 10.1477 40.696 9.74432C40.4687 9.34091 40.1534 9.02557 39.75 8.79829C39.3523 8.56534 38.8892 8.44886 38.3608 8.44886C37.8097 8.44886 37.321 8.5767 36.8949 8.83239C36.4744 9.08239 36.1449 9.42045 35.9062 9.84659C35.6676 10.267 35.5455 10.7358 35.5398 11.2528V13.392C35.5398 14.0398 35.6591 14.5994 35.8977 15.071C36.142 15.5426 36.4858 15.9063 36.929 16.1619C37.3722 16.4176 37.8977 16.5455 38.5057 16.5455C38.9091 16.5455 39.2784 16.4886 39.6136 16.375C39.9489 16.2614 40.2358 16.0909 40.4744 15.8636C40.7131 15.6364 40.8949 15.358 41.0199 15.0284L44.3778 15.25C44.2074 16.0568 43.858 16.7614 43.3295 17.3636C42.8068 17.9602 42.1307 18.4261 41.3011 18.7614C40.4773 19.0909 39.5256 19.2557 38.446 19.2557Z" fill="white"/>
<path d="M50.4545 11.4318V19H46.8239V5.90909H50.2841V8.21875H50.4375C50.7273 7.45739 51.2131 6.85511 51.8949 6.41193C52.5767 5.96307 53.4034 5.73864 54.375 5.73864C55.2841 5.73864 56.0767 5.9375 56.7528 6.33523C57.429 6.73295 57.9545 7.30114 58.3295 8.03977C58.7045 8.77273 58.892 9.64773 58.892 10.6648V19H55.2614V11.3125C55.267 10.5114 55.0625 9.88636 54.6477 9.4375C54.233 8.98295 53.6619 8.75568 52.9347 8.75568C52.446 8.75568 52.0142 8.8608 51.6392 9.07102C51.2699 9.28125 50.9801 9.58807 50.7699 9.99148C50.5653 10.3892 50.4602 10.8693 50.4545 11.4318Z" fill="white"/>
<path d="M65.4865 19.2472C64.6513 19.2472 63.907 19.1023 63.2536 18.8125C62.6001 18.517 62.0831 18.0824 61.7024 17.5085C61.3274 16.929 61.1399 16.2074 61.1399 15.3438C61.1399 14.6165 61.2734 14.0057 61.5405 13.5114C61.8075 13.017 62.1712 12.6193 62.6314 12.3182C63.0916 12.017 63.6144 11.7898 64.1996 11.6364C64.7905 11.483 65.4098 11.375 66.0575 11.3125C66.8189 11.233 67.4325 11.1591 67.8984 11.0909C68.3643 11.017 68.7024 10.9091 68.9126 10.767C69.1229 10.625 69.228 10.4148 69.228 10.1364V10.0852C69.228 9.54545 69.0575 9.12784 68.7166 8.83239C68.3814 8.53693 67.9041 8.3892 67.2848 8.3892C66.6314 8.3892 66.1115 8.53409 65.7251 8.82386C65.3388 9.10795 65.0831 9.46591 64.9581 9.89773L61.6001 9.625C61.7706 8.82955 62.1058 8.14204 62.6058 7.5625C63.1058 6.97727 63.7507 6.52841 64.5405 6.21591C65.3359 5.89773 66.2564 5.73864 67.3018 5.73864C68.0291 5.73864 68.7251 5.82386 69.3899 5.99432C70.0604 6.16477 70.6541 6.42898 71.1712 6.78693C71.6939 7.14489 72.1058 7.60511 72.407 8.16761C72.7081 8.72443 72.8587 9.39205 72.8587 10.1705V19H69.4155V17.1847H69.3132C69.103 17.5938 68.8217 17.9545 68.4695 18.267C68.1172 18.5739 67.6939 18.8153 67.1996 18.9915C66.7053 19.1619 66.1342 19.2472 65.4865 19.2472ZM66.5263 16.7415C67.0604 16.7415 67.532 16.6364 67.941 16.4261C68.3501 16.2102 68.6712 15.9205 68.9041 15.5568C69.1371 15.1932 69.2536 14.7812 69.2536 14.321V12.9318C69.1399 13.0057 68.9837 13.0739 68.7848 13.1364C68.5916 13.1932 68.3729 13.2472 68.1286 13.2983C67.8842 13.3438 67.6399 13.3864 67.3956 13.4261C67.1513 13.4602 66.9297 13.4915 66.7308 13.5199C66.3047 13.5824 65.9325 13.6818 65.6143 13.8182C65.2962 13.9545 65.049 14.1392 64.8729 14.3722C64.6967 14.5994 64.6087 14.8835 64.6087 15.2244C64.6087 15.7188 64.7876 16.0966 65.1456 16.358C65.5092 16.6136 65.9695 16.7415 66.5263 16.7415Z" fill="white"/>
<path d="M95.8977 1.54545V19H92.7102L85.1165 8.0142H84.9886V19H81.2983V1.54545H84.5369L92.071 12.5227H92.2244V1.54545H95.8977Z" fill="white"/>
<path d="M98.8785 19V5.90909H102.509V19H98.8785ZM100.702 4.22159C100.163 4.22159 99.6996 4.04261 99.3132 3.68466C98.9325 3.32102 98.7422 2.88636 98.7422 2.38068C98.7422 1.88068 98.9325 1.4517 99.3132 1.09375C99.6996 0.730113 100.163 0.548294 100.702 0.548294C101.242 0.548294 101.702 0.730113 102.083 1.09375C102.469 1.4517 102.663 1.88068 102.663 2.38068C102.663 2.88636 102.469 3.32102 102.083 3.68466C101.702 4.04261 101.242 4.22159 100.702 4.22159Z" fill="white"/>
<path d="M108.707 15.233L108.716 10.8778H109.244L113.438 5.90909H117.605L111.972 12.4886H111.111L108.707 15.233ZM105.418 19V1.54545H109.048V19H105.418ZM113.599 19L109.747 13.2983L112.168 10.733L117.852 19H113.599Z" fill="white"/>
<path d="M119.386 19V5.90909H123.017V19H119.386ZM121.21 4.22159C120.67 4.22159 120.207 4.04261 119.821 3.68466C119.44 3.32102 119.25 2.88636 119.25 2.38068C119.25 1.88068 119.44 1.4517 119.821 1.09375C120.207 0.730113 120.67 0.548294 121.21 0.548294C121.75 0.548294 122.21 0.730113 122.591 1.09375C122.977 1.4517 123.17 1.88068 123.17 2.38068C123.17 2.88636 122.977 3.32102 122.591 3.68466C122.21 4.04261 121.75 4.22159 121.21 4.22159Z" fill="white"/>
<path d="M132.888 5.90909V8.63636H125.005V5.90909H132.888ZM126.795 2.77273H130.425V14.9773C130.425 15.3125 130.477 15.5739 130.579 15.7614C130.681 15.9432 130.823 16.071 131.005 16.1449C131.192 16.2187 131.408 16.2557 131.653 16.2557C131.823 16.2557 131.994 16.2415 132.164 16.2131C132.335 16.179 132.465 16.1534 132.556 16.1364L133.127 18.8381C132.945 18.8949 132.69 18.9602 132.36 19.0341C132.031 19.1136 131.63 19.1619 131.158 19.179C130.283 19.2131 129.516 19.0966 128.857 18.8295C128.204 18.5625 127.695 18.1477 127.332 17.5852C126.968 17.0227 126.789 16.3125 126.795 15.4545V2.77273Z" fill="white"/>
<path d="M141.028 19.2557C139.687 19.2557 138.533 18.9716 137.567 18.4034C136.607 17.8295 135.869 17.0341 135.352 16.017C134.84 15 134.585 13.8295 134.585 12.5057C134.585 11.1648 134.843 9.98864 135.36 8.97727C135.883 7.96023 136.624 7.16761 137.585 6.59943C138.545 6.02557 139.687 5.73864 141.011 5.73864C142.153 5.73864 143.153 5.94602 144.011 6.36079C144.869 6.77557 145.548 7.35795 146.048 8.10795C146.548 8.85795 146.823 9.73864 146.874 10.75H143.448C143.352 10.0966 143.096 9.57102 142.681 9.17329C142.272 8.76989 141.735 8.56818 141.07 8.56818C140.508 8.56818 140.016 8.72159 139.596 9.02841C139.181 9.32954 138.857 9.76989 138.624 10.3494C138.391 10.929 138.275 11.6307 138.275 12.4545C138.275 13.2898 138.388 14 138.616 14.5852C138.849 15.1705 139.175 15.6165 139.596 15.9233C140.016 16.2301 140.508 16.3835 141.07 16.3835C141.485 16.3835 141.857 16.2983 142.187 16.1278C142.522 15.9574 142.798 15.7102 143.013 15.3864C143.235 15.0568 143.38 14.6619 143.448 14.2017H146.874C146.817 15.2017 146.545 16.0824 146.056 16.8438C145.573 17.5994 144.906 18.1903 144.053 18.6165C143.201 19.0426 142.192 19.2557 141.028 19.2557Z" fill="white"/>
<path d="M152.83 11.4318V19H149.199V1.54545H152.727V8.21875H152.881C153.176 7.44602 153.653 6.84091 154.312 6.40341C154.972 5.96023 155.798 5.73864 156.793 5.73864C157.702 5.73864 158.494 5.9375 159.17 6.33523C159.852 6.72727 160.381 7.29261 160.756 8.03125C161.136 8.7642 161.324 9.64205 161.318 10.6648V19H157.687V11.3125C157.693 10.5057 157.489 9.87784 157.074 9.42898C156.665 8.98011 156.091 8.75568 155.352 8.75568C154.858 8.75568 154.42 8.8608 154.04 9.07102C153.665 9.28125 153.369 9.58807 153.153 9.99148C152.943 10.3892 152.835 10.8693 152.83 11.4318Z" fill="white"/>
<path d="M172.57 13.4261V5.90909H176.201V19H172.715V16.6222H172.579C172.283 17.3892 171.792 18.0057 171.104 18.4716C170.423 18.9375 169.59 19.1705 168.607 19.1705C167.732 19.1705 166.962 18.9716 166.298 18.5739C165.633 18.1761 165.113 17.6108 164.738 16.8778C164.369 16.1449 164.181 15.267 164.175 14.2443V5.90909H167.806V13.5966C167.812 14.3693 168.019 14.9801 168.428 15.429C168.837 15.8778 169.386 16.1023 170.073 16.1023C170.511 16.1023 170.92 16.0028 171.3 15.804C171.681 15.5994 171.988 15.2983 172.221 14.9006C172.46 14.5028 172.576 14.0114 172.57 13.4261Z" fill="white"/>
<path d="M182.395 15.233L182.403 10.8778H182.932L187.125 5.90909H191.293L185.659 12.4886H184.798L182.395 15.233ZM179.105 19V1.54545H182.736V19H179.105ZM187.287 19L183.435 13.2983L185.855 10.733L191.54 19H187.287Z" fill="white"/>
</svg>
