<svg xmlns="http://www.w3.org/2000/svg" viewBox="0 0 138 45"><style>.st0{fill:#22a39f}</style><path class="st0" d="M44.4 27.6c1.5 0 2.9-.6 3.9-1.6.3-.3.5-.5.7-.8.2-.3.4-.6.5-1 .1-.3.2-.7.3-1 .1-.4.1-.7.1-1.1 0-1.4-.6-2.9-1.6-3.9-.3-.3-.5-.5-.8-.7s-.6-.4-1-.5c-.3-.1-.7-.2-1-.3-1.8-.4-3.7.2-5 1.5-.3.3-.5.5-.7.8-.2.3-.4.6-.5.9-.1.3-.2.7-.3 1-.1.3-.1.7-.1 1.1 0 .4 0 .7.1 1.1.1.3.2.7.3 1 .1.3.3.7.5 1s.4.6.7.8c1 1.1 2.4 1.7 3.9 1.7zm21.9 0c1.5 0 2.9-.6 3.9-1.6.3-.3.5-.5.7-.8.2-.3.4-.6.5-1 .1-.3.2-.7.3-1 .1-.4.1-.7.1-1.1 0-1.4-.6-2.9-1.6-3.9-.3-.3-.5-.5-.8-.7s-.6-.4-1-.5c-.3-.1-.7-.2-1-.3-1.8-.4-3.7.2-5 1.5-.3.3-.5.5-.7.8-.2.3-.4.6-.5.9-.1.3-.2.7-.3 1-.1.3-.1.7-.1 1.1 0 .4 0 .7.1 1.1.1.3.2.7.3 1 .1.3.3.7.5 1s.4.6.7.8c1.1 1.1 2.5 1.7 3.9 1.7zm22 0c1.5 0 2.9-.6 3.9-1.6.3-.3.5-.5.7-.8.2-.3.4-.6.5-1 .1-.3.2-.7.3-1 .1-.4.1-.7.1-1.1 0-1.4-.6-2.9-1.6-3.9-.3-.3-.5-.5-.8-.7s-.6-.4-1-.5c-.3-.1-.7-.2-1-.3-1.8-.4-3.7.2-5 1.5-.3.3-.5.5-.7.8-.2.3-.4.6-.5.9-.1.3-.2.7-.3 1-.1.3-.1.7-.1 1.1 0 .4 0 .7.1 1.1.1.3.2.7.3 1 .1.3.3.7.5 1s.4.6.7.8c1 1.1 2.4 1.7 3.9 1.7z" id="dots"/><g id="Layer_4"><path class="st0" d="M32.5 44.8c1 0 2-.4 2.7-1.3 1.2-1.5 1-3.7-.5-4.9L13.9 21.8 34.6 6.3c1.5-1.2 1.9-3.4.7-4.9-1.2-1.5-3.4-1.9-4.9-.7L2.5 21.6 30.3 44c.7.6 1.5.8 2.2.8z" id="arrow_1_"/></g></svg>