<svg width="275" height="26" fill="none" xmlns="http://www.w3.org/2000/svg"><path d="M6.227 1.727l5.625 17.682h.216l5.636-17.682h5.455L15.136 25h-6.34L.76 1.727h5.466zM25.87 25V7.545h4.841V25h-4.84zm2.432-19.705a2.63 2.63 0 01-1.852-.715c-.508-.485-.762-1.065-.762-1.74 0-.666.254-1.238.762-1.715A2.607 2.607 0 0128.3.398c.72 0 1.334.242 1.841.727.515.477.773 1.05.773 1.716 0 .674-.258 1.254-.773 1.739-.508.477-1.121.715-1.84.715zM39.43 1.727V25h-4.84V1.727h4.84zm11.832 23.614c-1.795 0-3.34-.364-4.636-1.091a7.471 7.471 0 01-2.977-3.114c-.697-1.348-1.046-2.943-1.046-4.784 0-1.795.349-3.37 1.046-4.727.697-1.356 1.678-2.413 2.943-3.17 1.273-.758 2.765-1.137 4.477-1.137 1.152 0 2.224.186 3.216.557 1 .364 1.871.913 2.614 1.648.75.735 1.333 1.659 1.75 2.773.416 1.106.625 2.401.625 3.886v1.33h-14.74v-3h10.182c0-.698-.152-1.315-.455-1.853A3.257 3.257 0 0053 11.398c-.53-.31-1.148-.466-1.852-.466-.735 0-1.387.17-1.955.511-.56.334-1 .784-1.318 1.353a3.818 3.818 0 00-.489 1.875v2.852c0 .863.16 1.61.478 2.238a3.493 3.493 0 001.375 1.455c.59.34 1.291.511 2.102.511a4.59 4.59 0 001.477-.227 3.06 3.06 0 001.148-.682c.318-.303.56-.674.727-1.114L59.17 20a6.113 6.113 0 01-1.397 2.818c-.697.796-1.599 1.417-2.705 1.864-1.098.44-2.367.659-3.807.659zm16.012-10.432V25h-4.841V7.545h4.614v3.08h.204a4.87 4.87 0 011.943-2.41c.91-.598 2.011-.897 3.307-.897 1.212 0 2.269.265 3.17.796.902.53 1.603 1.288 2.103 2.272.5.978.75 2.144.75 3.5V25h-4.841V14.75c.007-1.068-.265-1.902-.818-2.5-.553-.606-1.315-.91-2.285-.91-.651 0-1.227.141-1.727.421a2.93 2.93 0 00-1.159 1.228c-.272.53-.413 1.17-.42 1.92zm20.042 10.42c-1.113 0-2.106-.193-2.977-.579a4.793 4.793 0 01-2.068-1.739c-.5-.772-.75-1.735-.75-2.886 0-.97.178-1.784.534-2.443.356-.66.84-1.19 1.454-1.591a7.057 7.057 0 012.091-.91 15.941 15.941 0 012.478-.431 62.567 62.567 0 002.454-.296c.621-.098 1.072-.242 1.352-.431.28-.19.421-.47.421-.841v-.068c0-.72-.227-1.277-.682-1.67-.447-.395-1.083-.592-1.909-.592-.871 0-1.564.194-2.08.58-.515.379-.855.856-1.022 1.432l-4.478-.364c.228-1.06.675-1.977 1.341-2.75.667-.78 1.527-1.379 2.58-1.795 1.06-.425 2.288-.637 3.682-.637.97 0 1.897.114 2.784.341a7.28 7.28 0 012.375 1.057 5.136 5.136 0 011.648 1.84c.401.743.602 1.633.602 2.671V25h-4.591v-2.42h-.136a4.925 4.925 0 01-1.125 1.443c-.47.409-1.035.73-1.694.966-.659.227-1.42.34-2.284.34zm1.387-3.34c.712 0 1.34-.14 1.886-.42a3.343 3.343 0 001.284-1.16c.31-.485.466-1.034.466-1.648V16.91c-.151.099-.36.19-.625.273a11.4 11.4 0 01-.875.216c-.326.06-.651.117-.977.17l-.887.125a5.988 5.988 0 00-1.488.398c-.424.182-.754.428-.989.738-.235.304-.352.682-.352 1.137 0 .659.239 1.163.716 1.511.485.341 1.098.512 1.84.512zm39.162-20.262V25h-4.25L113.49 10.352h-.171V25h-4.92V1.727h4.318l10.045 14.637h.205V1.727h4.898zM131.838 25V7.545h4.841V25h-4.841zm2.432-19.705a2.63 2.63 0 01-1.852-.715c-.508-.485-.762-1.065-.762-1.74 0-.666.254-1.238.762-1.715a2.606 2.606 0 011.852-.727c.72 0 1.333.242 1.841.727.515.477.773 1.05.773 1.716 0 .674-.258 1.254-.773 1.739-.508.477-1.121.715-1.841.715zm14.173 20.046c-1.788 0-3.326-.379-4.613-1.137a7.675 7.675 0 01-2.955-3.181c-.682-1.356-1.023-2.917-1.023-4.682 0-1.788.345-3.356 1.034-4.705.697-1.356 1.686-2.413 2.966-3.17 1.281-.765 2.803-1.148 4.568-1.148 1.523 0 2.857.277 4 .83 1.144.553 2.05 1.33 2.716 2.33.667 1 1.034 2.174 1.103 3.522h-4.569c-.128-.871-.469-1.572-1.022-2.102-.546-.538-1.262-.807-2.148-.807-.75 0-1.405.205-1.966.614-.553.401-.985.988-1.295 1.76-.311.774-.466 1.71-.466 2.808 0 1.113.151 2.06.454 2.84.311.78.746 1.376 1.307 1.785.561.409 1.216.613 1.966.613.553 0 1.049-.113 1.489-.34a2.876 2.876 0 001.102-.99c.295-.439.489-.965.579-1.579h4.569c-.076 1.334-.44 2.508-1.091 3.523-.644 1.008-1.534 1.796-2.671 2.364-1.136.568-2.481.852-4.034.852zm15.281-5.364l.012-5.806h.704l5.591-6.626h5.557l-7.511 8.773h-1.148l-3.205 3.66zM159.338 25V1.727h4.841V25h-4.841zm10.909 0l-5.136-7.602 3.227-3.42L175.918 25h-5.671zm7.716 0V7.545h4.841V25h-4.841zm2.432-19.705a2.63 2.63 0 01-1.852-.715c-.508-.485-.762-1.065-.762-1.74 0-.666.254-1.238.762-1.715a2.606 2.606 0 011.852-.727c.72 0 1.333.242 1.841.727.515.477.773 1.05.773 1.716 0 .674-.258 1.254-.773 1.739-.508.477-1.121.715-1.841.715zm15.571 2.25v3.637h-10.511V7.545h10.511zm-8.125-4.181h4.841v16.272c0 .447.068.796.204 1.046.137.242.326.413.569.511.25.099.537.148.863.148.227 0 .455-.019.682-.057.227-.045.402-.08.523-.102l.761 3.602a13.58 13.58 0 01-1.023.262c-.439.105-.973.17-1.602.193-1.167.045-2.189-.11-3.068-.466-.871-.356-1.549-.91-2.034-1.66-.485-.75-.724-1.696-.716-2.84V3.363zm18.977 21.977c-1.788 0-3.326-.379-4.613-1.137a7.675 7.675 0 01-2.955-3.181c-.682-1.356-1.023-2.917-1.023-4.682 0-1.788.345-3.356 1.034-4.705.697-1.356 1.686-2.413 2.966-3.17 1.281-.765 2.803-1.148 4.568-1.148 1.523 0 2.857.277 4 .83 1.144.553 2.05 1.33 2.716 2.33.667 1 1.034 2.174 1.103 3.522h-4.569c-.128-.871-.469-1.572-1.022-2.102-.546-.538-1.262-.807-2.148-.807-.75 0-1.405.205-1.966.614-.553.401-.985.988-1.295 1.76-.311.774-.466 1.71-.466 2.808 0 1.113.151 2.06.454 2.84.311.78.746 1.376 1.307 1.785.561.409 1.216.613 1.966.613.553 0 1.049-.113 1.489-.34a2.876 2.876 0 001.102-.99c.295-.439.489-.965.579-1.579h4.569c-.076 1.334-.44 2.508-1.091 3.523-.644 1.008-1.534 1.796-2.671 2.364-1.136.568-2.481.852-4.034.852zm15.736-10.432V25h-4.841V1.727h4.705v8.898h.204c.394-1.03 1.03-1.837 1.909-2.42.879-.591 1.981-.887 3.307-.887 1.212 0 2.269.265 3.171.796.909.522 1.613 1.276 2.113 2.261.508.977.758 2.148.75 3.511V25h-4.841V14.75c.008-1.076-.265-1.913-.818-2.511-.545-.599-1.311-.898-2.295-.898-.659 0-1.243.14-1.75.42-.5.28-.894.69-1.182 1.228-.281.53-.424 1.17-.432 1.92zm26.321 2.66V7.544h4.841V25h-4.648v-3.17h-.182a5.153 5.153 0 01-1.966 2.466c-.909.62-2.018.931-3.329.931-1.167 0-2.193-.265-3.08-.795-.886-.53-1.579-1.284-2.079-2.261-.493-.978-.743-2.148-.75-3.512V7.545h4.841v10.25c.007 1.03.284 1.845.829 2.444.546.598 1.277.897 2.193.897.584 0 1.129-.132 1.637-.397a3.128 3.128 0 001.227-1.205c.318-.53.474-1.185.466-1.966zm13.099 2.408l.012-5.806h.704l5.591-6.626h5.557l-7.511 8.773h-1.148l-3.205 3.66zM257.588 25V1.727h4.841V25h-4.841zm10.909 0l-5.136-7.602 3.227-3.42L274.168 25h-5.671z" fill="#000"/></svg>