<svg width="192" height="20" fill="none" xmlns="http://www.w3.org/2000/svg"><path d="M4.67 1.545l4.22 13.262h.161l4.227-13.262h4.091L11.352 19H6.597L.57 1.545h4.1zM19.402 19V5.91h3.63V19h-3.63zm1.824-14.778a1.98 1.98 0 01-1.39-.537c-.38-.364-.57-.799-.57-1.304 0-.5.19-.93.57-1.287.387-.364.85-.546 1.39-.546.54 0 1 .182 1.38.546.387.358.58.787.58 1.287 0 .505-.193.94-.58 1.304a1.94 1.94 0 01-1.38.537zm8.346-2.677V19h-3.63V1.545h3.63zm8.874 17.711c-1.347 0-2.506-.273-3.477-.819a5.603 5.603 0 01-2.233-2.335c-.523-1.011-.784-2.207-.784-3.588 0-1.346.261-2.528.784-3.545a5.796 5.796 0 012.207-2.378c.955-.568 2.074-.852 3.358-.852.864 0 1.668.139 2.412.417a5.35 5.35 0 011.96 1.236c.563.551 1 1.244 1.313 2.08.312.83.469 1.8.469 2.914v.998H33.4v-2.25h7.636c0-.523-.114-.986-.341-1.39a2.442 2.442 0 00-.946-.946c-.398-.233-.86-.35-1.39-.35a2.8 2.8 0 00-1.465.384c-.42.25-.75.588-.989 1.015-.238.42-.36.889-.366 1.406v2.139c0 .648.12 1.207.358 1.679a2.62 2.62 0 001.031 1.09c.443.257.969.384 1.577.384a3.43 3.43 0 001.108-.17 2.3 2.3 0 00.86-.511c.24-.228.42-.506.546-.836l3.358.222a4.583 4.583 0 01-1.048 2.114c-.523.596-1.2 1.062-2.029 1.397-.824.33-1.775.495-2.855.495zm12.009-7.824V19h-3.631V5.91h3.46v2.309h.154a3.652 3.652 0 011.457-1.807c.682-.449 1.508-.673 2.48-.673.91 0 1.702.199 2.378.596A4.057 4.057 0 0158.33 8.04c.375.733.562 1.608.562 2.625V19h-3.63v-7.688c.005-.8-.2-1.426-.614-1.874-.415-.455-.986-.682-1.713-.682-.489 0-.92.105-1.296.315a2.2 2.2 0 00-.87.92c-.204.398-.309.878-.314 1.44zm15.032 7.815c-.836 0-1.58-.145-2.233-.434a3.595 3.595 0 01-1.552-1.304c-.375-.58-.562-1.302-.562-2.165 0-.727.133-1.338.4-1.833a3.246 3.246 0 011.091-1.193 5.29 5.29 0 011.569-.682 11.92 11.92 0 011.858-.323c.76-.08 1.374-.154 1.84-.222.466-.074.804-.182 1.015-.324.21-.142.315-.352.315-.63v-.052c0-.54-.17-.957-.511-1.253-.336-.295-.813-.443-1.432-.443-.654 0-1.173.145-1.56.435a2 2 0 00-.767 1.074L61.6 9.625a4.563 4.563 0 011.006-2.063c.5-.585 1.145-1.034 1.934-1.346.796-.318 1.716-.477 2.762-.477a8.4 8.4 0 012.088.255c.67.17 1.264.435 1.781.793.523.358.935.818 1.236 1.38.301.557.452 1.225.452 2.004V19h-3.444v-1.815h-.102c-.21.409-.491.77-.844 1.082a3.906 3.906 0 01-1.27.724c-.494.17-1.065.256-1.712.256zm1.04-2.506c.533 0 1.005-.105 1.414-.315.41-.216.73-.505.963-.87.233-.363.35-.775.35-1.235v-1.39a1.88 1.88 0 01-.47.205 8.267 8.267 0 01-.655.162c-.245.046-.49.088-.733.128l-.665.094a4.49 4.49 0 00-1.117.298 1.785 1.785 0 00-.741.554c-.176.227-.264.511-.264.852 0 .495.179.873.537 1.134.363.256.823.383 1.38.383zM95.898 1.545V19H92.71L85.117 8.014h-.128V19h-3.69V1.545h3.238l7.534 10.978h.153V1.545h3.674zM98.879 19V5.91h3.63V19h-3.63zm1.823-14.778a1.973 1.973 0 01-1.389-.537c-.38-.364-.57-.799-.57-1.304 0-.5.19-.93.57-1.287.387-.364.85-.546 1.389-.546.54 0 1 .182 1.381.546.386.358.58.787.58 1.287 0 .505-.194.94-.58 1.304a1.944 1.944 0 01-1.381.537zm8.005 11.011l.009-4.355h.528l4.194-4.969h4.167l-5.633 6.58h-.861l-2.404 2.744zM105.418 19V1.545h3.63V19h-3.63zm8.181 0l-3.852-5.702 2.421-2.565L117.852 19h-4.253zm5.787 0V5.91h3.631V19h-3.631zm1.824-14.778c-.54 0-1.003-.18-1.389-.537-.381-.364-.571-.799-.571-1.304 0-.5.19-.93.571-1.287a1.954 1.954 0 011.389-.546c.54 0 1 .182 1.381.546.386.358.579.787.579 1.287 0 .505-.193.94-.579 1.304a1.944 1.944 0 01-1.381.537zm11.678 1.688v2.726h-7.883V5.91h7.883zm-6.093-3.137h3.63v12.204c0 .335.052.597.154.784.102.182.244.31.426.384.187.074.403.11.648.11.17 0 .341-.014.511-.042l.392-.077.571 2.702c-.182.057-.437.122-.767.196-.329.08-.73.128-1.202.145-.875.034-1.642-.082-2.301-.35a3.209 3.209 0 01-1.525-1.244c-.364-.562-.543-1.273-.537-2.13V2.772zm14.233 16.483c-1.341 0-2.495-.284-3.461-.853a5.76 5.76 0 01-2.215-2.386c-.512-1.017-.767-2.188-.767-3.511 0-1.341.258-2.517.775-3.529a5.76 5.76 0 012.225-2.378c.96-.573 2.102-.86 3.426-.86 1.142 0 2.142.207 3 .622.858.415 1.537.997 2.037 1.747.5.75.775 1.63.826 2.642h-3.426c-.096-.653-.352-1.179-.767-1.577-.409-.403-.946-.605-1.611-.605-.562 0-1.054.154-1.474.46-.415.302-.739.742-.972 1.321-.233.58-.349 1.282-.349 2.105 0 .836.113 1.546.341 2.131.233.585.559 1.031.98 1.338.42.307.912.46 1.474.46.415 0 .787-.085 1.117-.255a2.15 2.15 0 00.826-.742c.222-.33.367-.724.435-1.184h3.426c-.057 1-.329 1.88-.818 2.642-.483.755-1.15 1.346-2.003 1.772-.852.427-1.861.64-3.025.64zm11.802-7.824V19h-3.631V1.545h3.528V8.22h.154c.295-.773.772-1.378 1.431-1.816.66-.443 1.486-.664 2.481-.664.909 0 1.701.199 2.377.596a3.985 3.985 0 011.586 1.696c.38.733.568 1.611.562 2.634V19h-3.631v-7.688c.006-.806-.198-1.434-.613-1.883-.409-.449-.983-.673-1.722-.673a2.67 2.67 0 00-1.312.315c-.375.21-.671.517-.887.92-.21.398-.318.878-.323 1.44zm19.74 1.994V5.91h3.631V19h-3.486v-2.378h-.136a3.867 3.867 0 01-1.475 1.85c-.681.465-1.514.698-2.497.698-.875 0-1.645-.198-2.309-.596-.665-.398-1.185-.963-1.56-1.696-.369-.733-.557-1.611-.563-2.634V5.91h3.631v7.688c.006.772.213 1.383.622 1.832.409.449.958.673 1.645.673.438 0 .847-.1 1.227-.298.381-.205.688-.506.921-.903.239-.398.355-.89.349-1.475zm9.825 1.807l.008-4.355h.529l4.193-4.969h4.168l-5.634 6.58h-.861l-2.403 2.744zM179.105 19V1.545h3.631V19h-3.631zm8.182 0l-3.852-5.702 2.42-2.565L191.54 19h-4.253z" fill="#fff"/></svg>